<svg width="15" height="15" viewBox="0 0 15 15" fill="none" xmlns="http://www.w3.org/2000/svg">
<path fill-rule="evenodd" clip-rule="evenodd" d="M9.05403 1.91723L7.21901 0.142212L5.38398 1.91723L2.85648 1.55954L2.41509 4.07362L0.160004 5.27065L1.28123 7.56443L0.160004 9.85743L2.41509 11.0545L2.85648 13.5685L5.38398 13.2116L7.21901 14.9867L9.05403 13.2116L11.5815 13.5685L12.0229 11.0545L14.278 9.85743L13.1568 7.56443L14.278 5.27065L12.0229 4.07362L11.5815 1.55954L9.05403 1.91723ZM3.45579 7.89843L6.16253 10.6052L10.6498 5.70493L9.58622 4.7203L6.11199 8.50642L4.47595 6.87038L3.45579 7.89843Z" fill="url(#paint0_linear_74_599)"/>
<path fill-rule="evenodd" clip-rule="evenodd" d="M8.87795 2.4581L7.21901 0.85285L5.56006 2.4581L3.27418 2.13437L2.87543 4.40841L0.835899 5.49016L1.84974 7.56443L0.835899 9.63871L2.87543 10.7205L3.27418 12.9945L5.56006 12.6708L7.21901 14.276L8.87795 12.6708L11.1638 12.9945L11.5626 10.7205L13.6021 9.63871L12.5883 7.56443L13.6021 5.49016L11.5626 4.40841L11.1638 2.13437L8.87795 2.4581ZM3.455 7.89843L6.16253 10.6052L10.6498 5.70493L9.58622 4.7203L6.11199 8.50642L4.47595 6.87038L3.455 7.89843Z" fill="url(#paint1_linear_74_599)"/>
<path fill-rule="evenodd" clip-rule="evenodd" d="M3.455 7.89843L6.16253 10.6052L10.6238 5.73336L10.6538 5.7073L10.6498 6.81116L6.16253 11.7114L3.455 9.00387L3.45263 7.89449L3.45657 7.89685L3.455 7.89843Z" fill="#D18800"/>
<defs>
<linearGradient id="paint0_linear_74_599" x1="2.01635" y1="0.848902" x2="12.8117" y2="15.8615" gradientUnits="userSpaceOnUse">
<stop stop-color="#F4E72A"/>
<stop offset="0.539" stop-color="#CD8105"/>
<stop offset="0.68" stop-color="#CB7B00"/>
<stop offset="1" stop-color="#F4E72A"/>
</linearGradient>
<linearGradient id="paint1_linear_74_599" x1="2.28976" y1="0.923728" x2="11.9002" y2="14.6662" gradientUnits="userSpaceOnUse">
<stop stop-color="#F9E87F"/>
<stop offset="0.406" stop-color="#E2B719"/>
<stop offset="0.989" stop-color="#E2B719"/>
</linearGradient>
</defs>
</svg>
