<svg width="134" height="46" viewBox="0 0 134 46" fill="none" xmlns="http://www.w3.org/2000/svg">
<path d="M0 28.7723C0.556034 28.589 1.11207 28.4065 1.6681 28.0837C2.17981 27.787 2.69153 26.959 3.20243 26.959C3.75847 26.959 4.3145 28.1995 4.87054 28.1995C5.40401 28.1995 5.93828 28.0095 6.47175 27.7862C6.98347 27.5725 7.49518 26.9107 8.0077 26.9107C8.56373 26.9107 9.11896 30.4973 9.67419 30.4973C10.2077 30.4973 10.7419 30.0113 11.2754 30.0113C12.0764 30.0113 12.8766 30.3363 13.6768 30.9869C14.2119 31.421 14.7454 38.5806 15.2788 38.5806C15.8123 38.5806 16.3458 34.4599 16.8801 34.4599C17.4135 34.4599 17.947 35.5001 18.4813 35.5001C19.0148 35.5001 19.5482 35.2427 20.0825 34.9778C20.616 34.7137 21.1494 33.9116 21.6837 33.9116C22.1946 33.9116 22.7071 34.9296 23.218 34.9296C23.7741 34.9296 24.3301 32.7245 24.8862 32.0984C25.4196 31.4974 25.9531 31.5226 26.4874 31.1732C27.0208 30.823 27.5551 30.5225 28.0886 30.0009C28.6003 29.5001 29.112 28.1372 29.6229 28.1372C30.1789 28.1372 30.735 30.2762 31.291 30.4149C31.8027 30.544 32.3144 30.4795 32.8254 30.6078C33.3814 30.7473 33.9374 33.6972 34.4935 33.6972C35.0052 33.6972 35.5169 33.1794 36.0278 33.1794C36.5838 33.1794 37.1399 33.9361 37.6959 33.9361C38.2294 33.9361 38.7636 31.2785 39.2971 30.1775C39.8088 29.1217 40.3205 28.5052 40.8314 27.4286C41.3657 26.3053 41.8992 23.5364 42.4326 23.5364C42.9887 23.5364 43.5447 30.9803 44.1008 30.9803C44.635 30.9803 45.1685 20.6599 45.702 18.1537C46.2137 15.752 46.7254 14.5516 47.2363 14.5516C47.7923 14.5516 48.3484 17.2797 48.9044 17.2797C49.4387 17.2797 49.9721 17.1803 50.5056 16.9822C51.0399 16.7833 51.5734 15.108 52.1068 14.2192C52.6411 13.3304 53.1746 11.6484 53.7081 11.6484C54.2423 11.6484 54.7758 18.7368 55.3093 18.7368C55.8435 18.7368 56.377 15.6318 56.9105 15.6318C57.4448 15.6318 57.9782 20.6918 58.5117 20.8773C59.046 21.0621 59.5795 20.9693 60.1137 21.1548C60.6472 21.3403 61.1807 25.4914 61.7149 25.4914C62.2484 25.4914 62.7819 22.1705 63.3162 21.1897C63.8496 20.2088 64.3831 19.6079 64.9174 19.6079C65.4509 19.6079 65.9843 19.6183 66.5186 19.6183C67.0521 19.6183 67.5855 19.3994 68.1198 19.3994C68.6533 19.3994 69.1868 25.0188 69.721 25.0188C70.2319 25.0188 70.7445 23.9653 71.2554 23.9653C71.8114 23.9653 72.3674 25.7607 72.9235 25.7607C73.4569 25.7607 73.9904 22.7759 74.5247 21.4672C75.0582 20.1591 75.5916 17.9103 76.1259 17.9103C76.6594 17.9103 77.1936 17.9734 77.7271 18.0988C78.2388 18.2197 78.7505 19.6346 79.2614 19.6346C79.8175 19.6346 80.3735 19.6316 80.9296 19.6264C81.463 19.6212 81.9973 18.4096 82.5308 18.4096C83.0642 18.4096 83.5985 19.9825 84.132 20.5115C84.6655 21.0405 85.1997 21.5859 85.7332 21.5859C86.2667 21.5859 86.8009 12.4267 87.3344 12.4267C87.8679 12.4267 88.4022 13.0944 88.9356 13.2087C89.4691 13.3237 90.0034 13.2658 90.5368 13.3808C91.0703 13.4958 91.6046 14.7756 92.1381 14.7756C92.6723 14.7756 93.2058 12.3465 93.7393 11.0289C94.2736 9.71119 94.807 7.83113 95.3405 6.87106C95.8748 5.911 96.4082 5.26848 96.9417 5.26848C97.476 5.26848 98.0095 7.32068 98.5429 8.34752C99.0772 9.37287 99.6107 11.4265 100.144 11.4265C100.678 11.4265 101.212 8.09006 101.745 6.18552C102.28 4.28097 102.813 0 103.347 0C103.881 0 104.414 2.50032 104.948 3.45C105.482 4.40042 106.016 4.31065 106.549 5.70029C107.083 7.08994 107.617 11.7864 108.15 11.7864C108.685 11.7864 109.218 8.89803 109.752 7.90606C110.286 6.91335 110.819 5.83236 111.353 5.83236C111.864 5.83236 112.376 6.10539 112.888 6.10539C113.444 6.10539 114 3.38471 114.556 3.38471C115.067 3.38471 115.579 3.77052 116.09 3.99532C116.646 4.24016 117.202 4.80329 117.758 4.80329C118.292 4.80329 118.825 4.44197 119.36 4.44197C119.87 4.44197 120.383 11.3909 120.894 11.3909C121.45 11.3909 122.006 11.3338 122.562 11.3338C123.095 11.3338 123.629 11.6276 124.163 12.2167C124.675 12.7806 125.187 13.6205 125.698 14.8654C126.254 16.218 126.81 18.857 127.366 20.2059C127.899 21.5013 128.433 22.8998 128.967 22.8998C129.5 22.8998 130.035 16.9325 130.568 16.9325C131.102 16.9325 131.636 20.3454 132.169 20.3454C132.703 20.3454 133.237 20.2764 133.771 20.2066V46H0V28.7723Z" fill="url(#paint0_linear_28_5160)"/>
<defs>
<linearGradient id="paint0_linear_28_5160" x1="0" y1="0" x2="0" y2="46" gradientUnits="userSpaceOnUse">
<stop stop-color="#DC2626" stop-opacity="0.1"/>
<stop offset="0.8" stop-color="#DC2626" stop-opacity="0"/>
</linearGradient>
</defs>
</svg>
