<svg width="36" height="36" viewBox="0 0 36 36" fill="none" xmlns="http://www.w3.org/2000/svg">
<path d="M33.75 18C34.9926 18 36.0145 16.9888 35.8596 15.7558C35.5271 13.1097 34.6093 10.5607 33.1619 8.29855C31.3086 5.40219 28.6645 3.09727 25.5424 1.65644C22.4203 0.215623 18.9509 -0.3008 15.5445 0.168272C12.1381 0.637344 8.93737 2.07228 6.32091 4.30333C3.70445 6.53437 1.78176 9.46816 0.780318 12.7576C-0.221128 16.0471 -0.25943 19.5546 0.669944 22.8651C1.59932 26.1756 3.45748 29.1507 6.02459 31.4384C8.02961 33.2251 10.4016 34.5341 12.9619 35.2806C14.1549 35.6284 15.3149 34.7791 15.5112 33.5521C15.7076 32.3251 14.8623 31.189 13.6848 30.7918C11.9698 30.2132 10.3811 29.2931 9.01845 28.0788C7.09311 26.363 5.69949 24.1317 5.00246 21.6488C4.30543 19.1659 4.33415 16.5353 5.08524 14.0682C5.83632 11.6011 7.27834 9.40078 9.24068 7.72749C11.203 6.05421 13.6036 4.97801 16.1584 4.6262C18.7132 4.2744 21.3153 4.66172 23.6568 5.74233C25.9984 6.82295 27.9814 8.55165 29.3714 10.7239C30.3551 12.2614 31.0127 13.9755 31.3129 15.7604C31.5191 16.9858 32.5074 18 33.75 18Z" fill="#16C784"/>
</svg>
