<svg width="14" height="14" viewBox="0 0 14 14" fill="none" xmlns="http://www.w3.org/2000/svg">
<path d="M7.00001 0.333496C3.3189 0.333496 0.333344 3.3185 0.333344 7.00016C0.333344 9.9457 2.24334 12.4446 4.89279 13.3263C5.22556 13.388 5.33334 13.1813 5.33334 13.0057V11.7646C3.4789 12.168 3.09279 10.978 3.09279 10.978C2.78946 10.2074 2.35223 10.0024 2.35223 10.0024C1.74723 9.5885 2.39834 9.59736 2.39834 9.59736C3.06779 9.64403 3.42001 10.2846 3.42001 10.2846C4.01446 11.3035 4.97946 11.009 5.36001 10.8385C5.41946 10.408 5.59223 10.1135 5.78334 9.94736C4.30279 9.77796 2.74612 9.2063 2.74612 6.65236C2.74612 5.92403 3.00668 5.32961 3.43279 4.86294C3.3639 4.69461 3.13556 4.01628 3.49779 3.0985C3.49779 3.0985 4.05779 2.91961 5.33168 3.78183C5.86334 3.63405 6.43334 3.56016 7.00001 3.55738C7.56668 3.56016 8.13721 3.63405 8.67001 3.78183C9.94281 2.91961 10.5017 3.0985 10.5017 3.0985C10.8645 4.01683 10.6361 4.69516 10.5672 4.86294C10.995 5.32961 11.2533 5.92463 11.2533 6.65236C11.2533 9.21296 9.69388 9.77683 8.20948 9.94183C8.44834 10.1485 8.66668 10.554 8.66668 11.1763V13.0057C8.66668 13.183 8.77334 13.3913 9.11168 13.3257C11.7589 12.443 13.6667 9.94463 13.6667 7.00016C13.6667 3.3185 10.6817 0.333496 7.00001 0.333496Z" fill="black"/>
</svg>
