<svg width="16" height="16" viewBox="0 0 16 16" fill="none" xmlns="http://www.w3.org/2000/svg">
<path d="M8.00001 1.3335C4.31824 1.3335 1.33334 4.31839 1.33334 8.00016C1.33334 9.8413 2.0797 11.508 3.28595 12.7142L2.01616 13.984C1.76407 14.2361 1.94272 14.6668 2.29897 14.6668H8.00001C11.6818 14.6668 14.6667 11.682 14.6667 8.00016C14.6667 4.31839 11.6818 1.3335 8.00001 1.3335Z" fill="#FF4500"/>
<path d="M9.35627 4.47702C9.47187 4.96713 9.912 5.33223 10.4375 5.33223C11.0511 5.33223 11.5485 4.83483 11.5485 4.22129C11.5485 3.60775 11.0511 3.11035 10.4375 3.11035C9.90107 3.11035 9.45367 3.49057 9.34947 3.99629C8.45107 4.09265 7.74947 4.85462 7.74947 5.77806C7.74947 5.78014 7.74947 5.78171 7.74947 5.78379C6.7724 5.82494 5.88021 6.10307 5.17188 6.54213C4.90886 6.33848 4.57865 6.21712 4.22032 6.21712C3.36042 6.21712 2.66354 6.91401 2.66354 7.77387C2.66354 8.39787 3.03021 8.93534 3.5599 9.1838C3.61146 10.9911 5.58073 12.4447 8.00314 12.4447C10.4255 12.4447 12.3974 10.9895 12.4463 9.18067C12.9719 8.93067 13.3354 8.39474 13.3354 7.77441C13.3354 6.91454 12.6385 6.21765 11.7787 6.21765C11.4219 6.21765 11.0932 6.33796 10.8307 6.54004C10.1161 6.09786 9.21407 5.81973 8.22707 5.78275C8.22707 5.78119 8.22707 5.78014 8.22707 5.77858C8.22707 5.11712 8.71874 4.56816 9.35627 4.47806V4.47702ZM5.10938 8.76194C5.13542 8.19734 5.51042 7.76401 5.94636 7.76401C6.3823 7.76401 6.7156 8.22181 6.6896 8.78641C6.66354 9.35101 6.33802 9.55621 5.90156 9.55621C5.46511 9.55621 5.08334 9.32647 5.10938 8.76194ZM10.0604 7.76401C10.4969 7.76401 10.8719 8.19734 10.8974 8.76194C10.9235 9.32647 10.5411 9.55621 10.1052 9.55621C9.66927 9.55621 9.3432 9.35147 9.3172 8.78641C9.29114 8.22181 9.62394 7.76401 10.0604 7.76401ZM9.54167 10.0681C9.62347 10.0765 9.67554 10.1614 9.64374 10.2375C9.37554 10.8786 8.7422 11.3291 8.00314 11.3291C7.26407 11.3291 6.63125 10.8786 6.3625 10.2375C6.33073 10.1614 6.38282 10.0765 6.46458 10.0681C6.94374 10.0197 7.462 9.99314 8.00314 9.99314C8.54427 9.99314 9.062 10.0197 9.54167 10.0681Z" fill="white"/>
</svg>
